<?xml version="1.0" standalone="no"?>
<!DOCTYPE svg PUBLIC "-//W3C//DTD SVG 20010904//EN"
 "http://www.w3.org/TR/2001/REC-SVG-20010904/DTD/svg10.dtd">
<svg version="1.0" xmlns="http://www.w3.org/2000/svg"
 width="512.000000pt" height="512.000000pt" viewBox="0 0 512.000000 512.000000"
 preserveAspectRatio="xMidYMid meet">
<metadata>
Created by potrace 1.16, written by Peter Selinger 2001-2019
</metadata>
<g transform="translate(0.000000,512.000000) scale(0.100000,-0.100000)"
fill="#000000" stroke="none">
<path d="M1293 3691 c-67 -24 -126 -66 -186 -130 -46 -50 -97 -139 -97 -172 0
-9 -10 -29 -22 -45 l-23 -29 -3 -672 c-1 -370 0 -673 3 -673 4 0 15 5 26 10
18 10 19 6 19 -165 0 -151 3 -184 21 -237 43 -130 138 -235 267 -296 l77 -37
1210 0 1210 0 47 22 c116 54 223 166 270 281 l23 57 0 865 c0 833 -1 867 -20
925 -42 128 -155 247 -282 295 l-58 22 -825 -6 -824 -6 -41 -40 -41 -41 -42
46 -41 45 -308 0 c-275 -1 -314 -3 -360 -19z m655 -56 c33 -73 25 -75 -289
-78 l-274 -2 -58 -29 c-38 -18 -69 -43 -88 -69 -33 -46 -35 -55 -14 -63 10 -4
33 10 61 36 76 70 76 70 426 70 l313 0 66 70 65 70 400 0 399 0 65 -70 65 -70
325 0 c323 0 325 0 377 -25 29 -13 73 -44 97 -69 39 -41 76 -60 76 -38 0 4
-13 30 -28 57 -30 55 -97 107 -160 125 -22 6 -166 10 -344 10 l-306 0 -42 50
-42 51 363 -3 c363 -3 364 -3 414 -27 68 -33 160 -127 190 -194 14 -30 30 -79
35 -110 7 -36 10 -344 8 -874 l-3 -818 -36 -75 c-47 -98 -117 -171 -206 -213
l-68 -32 -1115 -1 c-613 0 -1146 3 -1183 8 -179 22 -325 166 -348 345 -4 37
-8 337 -9 666 l0 597 -35 0 -36 0 3 57 c3 52 6 60 34 78 l32 20 4 165 c3 138
6 171 22 200 44 82 146 170 224 194 36 11 114 15 328 15 l281 1 11 -25z"/>
<path d="M2242 3567 c-25 -27 -28 -55 -8 -82 18 -25 131 -34 412 -32 183 2
204 4 223 21 29 26 28 80 -1 100 -19 14 -66 16 -313 16 l-292 0 -21 -23z m578
-42 c0 -13 -36 -15 -265 -15 -242 0 -278 3 -258 23 3 4 123 7 265 7 223 0 258
-2 258 -15z"/>
<path d="M2456 3295 c-21 -20 -38 -49 -42 -70 l-6 -35 -72 0 c-69 0 -74 2
-105 34 -25 25 -43 35 -77 39 -28 3 -55 13 -70 28 -23 21 -36 24 -135 27 -165
6 -217 -3 -256 -44 l-32 -34 -111 0 c-195 0 -209 -20 -210 -301 0 -168 2 -188
18 -202 16 -14 44 -17 185 -17 l167 0 0 -432 c0 -414 1 -434 20 -466 11 -18
34 -41 52 -52 31 -19 51 -20 401 -20 307 0 373 2 397 15 50 26 60 51 60 145 0
94 -1 96 -47 129 -44 30 -44 64 -2 81 46 20 69 64 69 134 0 48 -5 67 -26 98
-15 21 -30 38 -34 38 -4 0 -9 51 -12 114 -7 184 -16 191 -273 200 l-180 6 50
-25 c34 -17 108 -83 233 -208 175 -175 182 -183 182 -222 l0 -40 -87 86 c-262
255 -307 288 -394 289 -61 0 -132 -46 -174 -114 -28 -47 -30 -55 -30 -156 0
-101 2 -109 30 -156 64 -102 186 -139 274 -81 l39 26 4 -89 c4 -77 7 -93 28
-115 22 -23 30 -25 111 -25 87 0 89 1 111 30 12 17 26 30 30 30 5 0 8 -26 6
-57 l-3 -58 -353 -3 -353 -2 -24 24 -25 25 0 426 0 425 144 0 c115 0 146 3
156 15 10 12 10 18 0 30 -11 13 -62 15 -346 15 l-334 0 0 49 c0 42 3 51 22 57
12 3 96 5 187 3 91 -1 219 -2 284 -1 l117 2 0 143 c0 168 -7 187 -71 187 l-39
0 0 -125 0 -125 -115 0 -115 0 0 114 0 114 36 31 35 32 142 -3 c141 -3 142 -3
145 -27 4 -22 6 -23 54 -17 38 5 56 3 75 -10 35 -22 15 -34 -59 -34 -31 0 -60
-4 -63 -10 -3 -5 13 -30 36 -55 39 -43 44 -45 96 -45 l54 0 -2 -87 -2 -88 27
1 c14 0 73 1 131 2 l105 2 0 169 c0 141 3 172 16 185 22 23 226 23 244 1 8
-10 14 -65 17 -155 l6 -140 -27 0 c-26 0 -26 0 -26 79 0 97 -8 141 -26 141
-11 0 -14 -25 -15 -117 -1 -130 -1 -145 9 -155 11 -11 184 -16 585 -17 l367
-1 0 -50 0 -50 -525 0 c-460 0 -526 -2 -531 -15 -4 -8 -1 -22 6 -30 18 -22
1166 -23 1196 -1 17 13 19 27 19 123 l0 108 -55 5 -55 5 -5 118 c-6 150 -4
147 -153 147 l-110 0 -38 35 -39 35 -120 0 c-119 0 -119 0 -154 -30 -19 -17
-38 -44 -41 -60 l-7 -30 -89 0 c-73 0 -89 3 -89 15 0 31 -41 95 -70 110 -21
11 -62 15 -159 15 l-130 0 -35 -35z m840 -61 c20 -5 22 -14 27 -137 3 -74 1
-140 -4 -149 -14 -25 -184 -27 -193 -2 -3 9 -6 74 -6 144 0 112 2 130 18 139
18 11 123 14 158 5z m322 -56 c14 -14 17 -175 4 -196 -6 -9 -34 -12 -103 -10
l-94 3 -3 108 -3 107 94 0 c59 0 97 -4 105 -12z m-2000 -125 l-3 -78 -55 -3
c-30 -2 -74 -1 -97 3 l-43 6 0 68 c0 37 3 71 7 74 3 4 49 7 100 7 l94 0 -3
-77z m792 -13 l0 -90 -50 0 -50 0 0 90 0 90 50 0 50 0 0 -90z m630 10 l0 -80
-95 0 -95 0 0 80 0 80 95 0 95 0 0 -80z m-535 -444 c11 -16 15 -41 13 -73 l-3
-48 -75 72 -75 73 62 0 c55 0 64 -3 78 -24z m-331 -102 c27 -10 18 -32 -25
-61 -76 -50 -92 -127 -38 -188 17 -19 37 -35 44 -35 7 0 23 -9 36 -19 l24 -20
-23 -23 c-30 -30 -99 -32 -138 -3 -46 35 -64 81 -64 165 0 88 19 133 70 168
32 21 82 28 114 16z m191 -167 l95 -93 0 -147 0 -148 -52 3 -53 3 -3 107 -3
107 -79 72 c-76 69 -80 74 -80 115 0 45 24 74 62 74 10 0 60 -42 113 -93z"/>
<path d="M2809 2645 c-15 -8 -32 -29 -38 -46 -7 -22 -11 -185 -11 -505 l0
-474 -29 -32 -29 -33 -599 -3 c-586 -2 -599 -2 -631 18 -61 37 -62 48 -62 473
l0 383 -35 34 -35 34 0 -438 c0 -357 3 -442 14 -464 19 -36 65 -78 99 -91 19
-8 369 -11 1108 -11 1191 0 1118 -4 1187 63 55 52 74 101 80 200 l5 88 -27
-12 c-28 -13 -32 -23 -40 -108 -7 -70 -41 -122 -98 -150 -43 -20 -57 -21 -442
-21 -376 0 -398 1 -390 18 5 9 10 68 12 130 2 61 4 112 5 112 2 0 20 -9 42
-20 35 -18 59 -20 240 -20 220 0 259 9 302 64 31 39 36 102 28 358 -9 271 -8
268 -104 268 l-58 0 -6 35 c-8 51 -43 102 -91 133 -40 26 -47 27 -206 29 -132
3 -170 0 -191 -12z m313 -65 c41 -12 98 -70 98 -100 0 -19 -7 -20 -100 -20
-88 0 -100 -2 -110 -19 -5 -11 -10 -80 -10 -154 0 -105 3 -137 14 -147 8 -6
25 -31 36 -56 56 -115 170 -117 228 -4 20 40 22 59 22 182 l0 138 44 0 c31 0
46 -5 50 -16 3 -9 6 -122 6 -252 -1 -248 -2 -256 -47 -280 -28 -16 -368 -16
-411 -1 -17 6 -41 26 -52 44 -19 30 -20 49 -20 276 0 306 -12 428 -20 204 l-6
-150 -2 147 c-2 157 5 193 40 208 31 12 195 12 240 0z m108 -195 c0 -12 -16
-15 -80 -15 -64 0 -80 3 -80 15 0 12 16 15 80 15 64 0 80 -3 80 -15z m0 -140
l0 -85 -80 0 -80 0 0 85 0 85 80 0 80 0 0 -85z m-5 -145 c8 -14 -32 -50 -56
-50 -32 0 -59 19 -59 40 0 17 7 20 54 20 30 0 57 -4 61 -10z"/>
<path d="M3635 2510 c-3 -6 -6 -192 -5 -414 0 -268 -3 -407 -10 -411 -5 -3
-10 -15 -10 -26 0 -27 44 -25 64 3 14 19 16 77 16 430 0 392 -1 408 -19 418
-24 13 -28 13 -36 0z"/>
</g>
</svg>